<svg xmlns="http://www.w3.org/2000/svg" xmlns:xlink="http://www.w3.org/1999/xlink" width="89" height="89" viewBox="0 0 89 89">
  <defs>
    <linearGradient id="linear-gradient" x1="0.5" x2="0.5" y2="1" gradientUnits="objectBoundingBox">
      <stop offset="0" stop-color="#40a2a6"/>
      <stop offset="1" stop-color="#4cb8ba"/>
    </linearGradient>
    <filter id="Ellipse_1" x="0" y="0" width="89" height="89" filterUnits="userSpaceOnUse">
      <feOffset dy="3" input="SourceAlpha"/>
      <feGaussianBlur stdDeviation="4" result="blur"/>
      <feFlood flood-color="#b59945" flood-opacity="0.239"/>
      <feComposite operator="in" in2="blur"/>
      <feComposite in="SourceGraphic"/>
    </filter>
  </defs>
  <g id="apparel" transform="translate(-13 -131)">
    <g transform="matrix(1, 0, 0, 1, 13, 131)" filter="url(#Ellipse_1)">
      <circle id="Ellipse_1-2" data-name="Ellipse 1" cx="32.5" cy="32.5" r="32.5" transform="translate(12 9)" fill="url(#linear-gradient)"/>
    </g>
    <g id="Group_84" data-name="Group 84" transform="translate(-53.395 52.956)">
      <path id="Path_1" data-name="Path 1" d="M103.323,198.514c-1.307,0-2.613.011-3.919,0-1.151-.013-1.661-.509-1.666-1.642q-.019-3.963,0-7.926a1.422,1.422,0,0,1,1.623-1.6q3.963-.023,7.926,0c1.1.007,1.615.515,1.621,1.6q.021,3.963,0,7.926c-.005,1.126-.522,1.63-1.668,1.644C105.936,198.526,104.63,198.514,103.323,198.514Zm2.7-2.843V190.2H100.6v5.468Z" transform="translate(0 -66.038)" fill="#fff"/>
      <path id="Path_6" data-name="Path 6" d="M188.905,192.921c0,1.307.013,2.613,0,3.92-.014,1.164-.491,1.657-1.643,1.663q-3.963.023-7.927,0c-1.113-.008-1.588-.491-1.6-1.615q-.025-3.963,0-7.927c.007-1.112.5-1.611,1.6-1.619q4.007-.026,8.014,0c1.059.008,1.533.5,1.551,1.571C188.922,190.249,188.905,191.586,188.905,192.921Zm-8.294-2.748v5.469h5.431v-5.469Z" transform="translate(-65.518 -66.034)" fill="#fff"/>
      <path id="Path_8" data-name="Path 8" d="M108.914,112.978c0,1.309.012,2.618,0,3.927a1.442,1.442,0,0,1-1.621,1.612q-3.971.019-7.942,0a1.434,1.434,0,0,1-1.609-1.619q-.02-3.971,0-7.942a1.432,1.432,0,0,1,1.619-1.611q3.971-.019,7.942,0a1.438,1.438,0,0,1,1.612,1.617C108.925,110.3,108.914,111.64,108.914,112.978Zm-2.89,2.7v-5.459H100.6v5.459Z" transform="translate(0 -0.005)" fill="#fff"/>
      <path id="Path_9" data-name="Path 9" d="M183.225,118.517c-1.306,0-2.613.014-3.919,0a1.394,1.394,0,0,1-1.57-1.557q-.029-4.05,0-8.1a1.379,1.379,0,0,1,1.529-1.511q4.05-.027,8.1,0a1.374,1.374,0,0,1,1.526,1.512q.032,4.05,0,8.1a1.4,1.4,0,0,1-1.576,1.556C185.955,118.53,184.59,118.517,183.225,118.517Zm2.826-8.3h-5.458v5.44h5.458Z" transform="translate(-65.515 0)" fill="#fff"/>
    </g>
  </g>
</svg>
