<svg xmlns="http://www.w3.org/2000/svg" width="20.481" height="20.447" viewBox="0 0 20.481 20.447">
  <g id="brand" transform="translate(-47.363 -53.165)">
    <path id="Path_100" data-name="Path 100" d="M55.979,73.612,47.363,65c.027-.03.062-.074.1-.114q3.868-3.848,7.735-7.7a.35.35,0,0,1,.284-.113c1.481.043,2.963.078,4.444.122A.277.277,0,0,0,60.243,57a7.036,7.036,0,0,1,2.782-3.232,3.535,3.535,0,0,1,2.27-.59,2.951,2.951,0,0,1,2.51,3.311,4.769,4.769,0,0,1-1.087,2.153,7.226,7.226,0,0,1-2.777,2.086.237.237,0,0,0-.163.267c.044,1.481.077,2.963.123,4.444a.534.534,0,0,1-.175.436q-3.824,3.812-7.639,7.633C56.05,73.55,56.009,73.584,55.979,73.612Zm.029-1.175a1.076,1.076,0,0,1,.111-.163q.695-.7,1.394-1.4,2.7-2.7,5.392-5.4a.388.388,0,0,0,.122-.242c-.03-1.3-.071-2.6-.11-3.895,0-.057-.011-.114-.017-.172-.45.133-.884.258-1.315.395a.21.21,0,0,0-.1.145,1.934,1.934,0,0,1-3.791.11,1.982,1.982,0,0,1,.727-2,1.952,1.952,0,0,1,2.954.81c.039.106.088.128.191.094q.589-.2,1.182-.386a.169.169,0,0,0,.136-.2c-.025-.592-.046-1.185-.055-1.777,0-.161-.041-.218-.214-.222q-3.4-.092-6.8-.2a.415.415,0,0,0-.338.137q-3.391,3.4-6.788,6.791c-.044.044-.085.092-.12.129ZM61.1,57.228c.085,0,.143,0,.2,0,.733.017,1.465.038,2.2.05.143,0,.2.044.2.194.011.743.033,1.487.051,2.23,0,.057.005.114.009.193a1.694,1.694,0,0,0,.161-.069c.239-.136.485-.26.712-.414a5.5,5.5,0,0,0,2.121-2.522,2.021,2.021,0,0,0-1.3-2.758A2.1,2.1,0,0,0,63.9,54.3a5.851,5.851,0,0,0-2.773,2.828A.755.755,0,0,0,61.1,57.228Zm-.509,3.753a1.057,1.057,0,0,0-1.107-.626,1.033,1.033,0,0,0-.925,1.032,1.05,1.05,0,0,0,2,.424l-.763.134a1.044,1.044,0,0,0-.373.076.241.241,0,0,1-.28,0,.477.477,0,0,1-.245-.441.439.439,0,0,1,.334-.355c.078-.021.159-.027.238-.041Z" transform="translate(0 0)" fill="#4cb8ba"/>
    <path id="Path_101" data-name="Path 101" d="M102.64,224.4l.55.549-3.1,3.1-.545-.553Z" transform="translate(-49.501 -162.446)" fill="#4cb8ba"/>
    <path id="Path_102" data-name="Path 102" d="M150.922,279.77l3.116-3.112.576.581c-.013.014-.046.055-.083.092q-1.45,1.451-2.9,2.9c-.092.093-.15.106-.243,0C151.237,280.072,151.071,279.918,150.922,279.77Z" transform="translate(-98.241 -212.016)" fill="#4cb8ba"/>
    <path id="Path_103" data-name="Path 103" d="M177.956,306.365l-.545-.555,3.093-3.091.543.562Z" transform="translate(-123.37 -236.739)" fill="#4cb8ba"/>
    <path id="Path_104" data-name="Path 104" d="M125.951,254.049l-.545-.541,3.114-3.11.536.55Z" transform="translate(-74.036 -187.105)" fill="#4cb8ba"/>
    <path id="Path_105" data-name="Path 105" d="M204.073,331.816l-.607-.6,3.135-3.133.509.525c.081.083,0,.124-.046.17q-.661.664-1.324,1.325-.771.771-1.54,1.543A1.512,1.512,0,0,0,204.073,331.816Z" transform="translate(-148.087 -260.804)" fill="#4cb8ba"/>
  </g>
</svg>
