<svg xmlns="http://www.w3.org/2000/svg" width="22.033" height="21.817" viewBox="0 0 22.033 21.817">
  <g id="calendar" transform="translate(0 -20.9)">
    <g id="Group_317" data-name="Group 317" transform="translate(0 20.9)">
      <g id="Group_316" data-name="Group 316">
        <path id="Path_151" data-name="Path 151" d="M19.749,22.756H18.366V21.538a.577.577,0,1,0-1.148,0v1.218H11.593V21.538a.577.577,0,1,0-1.148,0v1.218H4.764V21.538A.61.61,0,0,0,4.19,20.9a.61.61,0,0,0-.574.638v1.218H2.29A2.466,2.466,0,0,0,0,25.339V40.166a2.428,2.428,0,0,0,2.29,2.551H19.743a2.426,2.426,0,0,0,2.29-2.545V25.339A2.458,2.458,0,0,0,19.749,22.756Zm1.142,17.41a1.215,1.215,0,0,1-1.136,1.275H2.29a1.21,1.21,0,0,1-1.142-1.269V25.339A1.242,1.242,0,0,1,2.29,24.031H3.616v.925a.61.61,0,0,0,.574.638.61.61,0,0,0,.574-.638v-.925h5.682v.925a.577.577,0,1,0,1.148,0v-.925h5.624v.925a.577.577,0,1,0,1.148,0v-.925h1.383a1.242,1.242,0,0,1,1.142,1.307Z" transform="translate(0 -20.9)" fill="#4cb8ba"/>
      </g>
    </g>
    <g id="Group_319" data-name="Group 319" transform="translate(7.932 28.176)">
      <g id="Group_318" data-name="Group 318">
        <path id="Path_152" data-name="Path 152" d="M139.778,135h-1a.641.641,0,0,0,0,1.275h1a.641.641,0,0,0,0-1.275Z" transform="translate(-138.2 -135)" fill="#4cb8ba"/>
      </g>
    </g>
    <g id="Group_321" data-name="Group 321" transform="translate(11.926 28.176)">
      <g id="Group_320" data-name="Group 320">
        <path id="Path_153" data-name="Path 153" d="M209.378,135h-1a.641.641,0,0,0,0,1.275h1a.641.641,0,0,0,0-1.275Z" transform="translate(-207.8 -135)" fill="#4cb8ba"/>
      </g>
    </g>
    <g id="Group_323" data-name="Group 323" transform="translate(15.955 28.176)">
      <g id="Group_322" data-name="Group 322">
        <path id="Path_154" data-name="Path 154" d="M279.578,135h-1a.641.641,0,0,0,0,1.275h1a.641.641,0,0,0,0-1.275Z" transform="translate(-278 -135)" fill="#4cb8ba"/>
      </g>
    </g>
    <g id="Group_325" data-name="Group 325" transform="translate(7.932 32.577)">
      <g id="Group_324" data-name="Group 324">
        <path id="Path_155" data-name="Path 155" d="M139.778,204h-1a.641.641,0,0,0,0,1.275h1a.641.641,0,0,0,0-1.275Z" transform="translate(-138.2 -204)" fill="#4cb8ba"/>
      </g>
    </g>
    <g id="Group_327" data-name="Group 327" transform="translate(3.903 32.577)">
      <g id="Group_326" data-name="Group 326">
        <path id="Path_156" data-name="Path 156" d="M69.584,204h-1.01a.641.641,0,0,0,0,1.275h1A.642.642,0,0,0,69.584,204Z" transform="translate(-68 -204)" fill="#4cb8ba"/>
      </g>
    </g>
    <g id="Group_329" data-name="Group 329" transform="translate(11.926 32.577)">
      <g id="Group_328" data-name="Group 328">
        <path id="Path_157" data-name="Path 157" d="M209.378,204h-1a.641.641,0,0,0,0,1.275h1a.641.641,0,0,0,0-1.275Z" transform="translate(-207.8 -204)" fill="#4cb8ba"/>
      </g>
    </g>
    <g id="Group_331" data-name="Group 331" transform="translate(15.955 32.577)">
      <g id="Group_330" data-name="Group 330">
        <path id="Path_158" data-name="Path 158" d="M279.578,204h-1a.641.641,0,0,0,0,1.275h1a.641.641,0,0,0,0-1.275Z" transform="translate(-278 -204)" fill="#4cb8ba"/>
      </g>
    </g>
    <g id="Group_333" data-name="Group 333" transform="translate(7.932 36.913)">
      <g id="Group_332" data-name="Group 332">
        <path id="Path_159" data-name="Path 159" d="M139.778,272h-1a.641.641,0,0,0,0,1.275h1a.641.641,0,0,0,0-1.275Z" transform="translate(-138.2 -272)" fill="#4cb8ba"/>
      </g>
    </g>
    <g id="Group_335" data-name="Group 335" transform="translate(3.903 36.913)">
      <g id="Group_334" data-name="Group 334">
        <path id="Path_160" data-name="Path 160" d="M69.584,272h-1.01a.641.641,0,0,0,0,1.275h1A.642.642,0,0,0,69.584,272Z" transform="translate(-68 -272)" fill="#4cb8ba"/>
      </g>
    </g>
    <g id="Group_337" data-name="Group 337" transform="translate(11.926 36.913)">
      <g id="Group_336" data-name="Group 336">
        <path id="Path_161" data-name="Path 161" d="M209.378,272h-1a.641.641,0,0,0,0,1.275h1a.641.641,0,0,0,0-1.275Z" transform="translate(-207.8 -272)" fill="#4cb8ba"/>
      </g>
    </g>
  </g>
</svg>
