<svg xmlns="http://www.w3.org/2000/svg" width="22.012" height="21.371" viewBox="0 0 22.012 21.371">
  <g id="cart-home" transform="translate(-330.627 -50.566)">
    <path id="Cart" d="M94.659,82.138H78.8l-.914-2.148a.751.751,0,0,0-.519-.437l-2.943-.692a.75.75,0,0,0-.344,1.461l2.573.605,6.587,15.483a2.481,2.481,0,1,0,4.445.25h2.7a2.481,2.481,0,1,0,2.284-1.512l-8.332.012-1.028-2.416H94.659a.75.75,0,0,0,.75-.75v-9.1A.75.75,0,0,0,94.659,82.138Zm-1.99,14.511a.98.98,0,1,1-.98.98A.98.98,0,0,1,92.669,96.649Zm-7.268,0a.98.98,0,1,1-.98.98A.981.981,0,0,1,85.4,96.649Zm8.508-9.959H88.935a.75.75,0,0,0,0,1.5h4.974v3.052H82.669l-3.235-7.6H93.909Z" transform="translate(257.18 -28.224)" fill="#fff" stroke="#fff" stroke-width="0.1"/>
  </g>
</svg>
