<svg xmlns="http://www.w3.org/2000/svg" width="18.875" height="18.496" viewBox="0 0 18.875 18.496">
  <g id="categories" transform="translate(-97.728 -107.33)">
    <path id="Path_1" data-name="Path 1" d="M101.843,195.555c-.961,0-1.922.008-2.882,0-.846-.009-1.221-.374-1.225-1.207q-.014-2.914,0-5.828a1.046,1.046,0,0,1,1.194-1.175q2.914-.017,5.829,0c.811,0,1.188.379,1.192,1.173q.015,2.914,0,5.828c0,.828-.384,1.2-1.226,1.209C103.764,195.564,102.8,195.555,101.843,195.555Zm1.989-2.091v-4.021H99.839v4.021Z" transform="translate(0 -69.733)" fill="#ffbe03"/>
    <path id="Path_6" data-name="Path 6" d="M185.947,191.441c0,.961.009,1.922,0,2.883-.011.856-.361,1.218-1.208,1.223q-2.915.017-5.829,0c-.818-.006-1.168-.361-1.173-1.188q-.018-2.915,0-5.829c.005-.818.365-1.185,1.175-1.19q2.947-.019,5.893,0c.779.006,1.127.368,1.141,1.155C185.959,189.477,185.946,190.459,185.947,191.441Zm-6.1-2.021v4.022h3.994V189.42Z" transform="translate(-69.349 -69.729)" fill="#ffbe03"/>
    <path id="Path_8" data-name="Path 8" d="M105.954,111.485c0,.963.009,1.925,0,2.888a1.06,1.06,0,0,1-1.192,1.186q-2.92.014-5.84,0a1.055,1.055,0,0,1-1.183-1.191q-.015-2.92,0-5.84a1.053,1.053,0,0,1,1.19-1.185q2.92-.014,5.84,0a1.058,1.058,0,0,1,1.185,1.189C105.962,109.517,105.954,110.5,105.954,111.485Zm-2.125,1.985v-4.014H99.844v4.014Z" transform="translate(0 -0.005)" fill="#ffbe03"/>
    <path id="Path_9" data-name="Path 9" d="M181.769,115.556c-.961,0-1.922.01-2.882,0a1.025,1.025,0,0,1-1.155-1.145q-.021-2.978,0-5.956a1.014,1.014,0,0,1,1.125-1.111q2.979-.02,5.957,0a1.01,1.01,0,0,1,1.122,1.112q.023,2.978,0,5.956a1.033,1.033,0,0,1-1.159,1.144C183.776,115.566,182.773,115.556,181.769,115.556Zm2.078-6.106h-4.013v4h4.013Z" transform="translate(-69.346 0)" fill="#ffbe03"/>
  </g>
</svg>
