<svg xmlns="http://www.w3.org/2000/svg" width="18.705" height="27" viewBox="0 0 18.705 27">
  <g id="category" transform="translate(-131.324 -147.255)">
    <path id="Path_1" data-name="Path 1" d="M157.794,196.436v.851h-6.467v5.981h6.563v.807h-7.51v-18.33h.847v3.883c.376.033.676.082.976.083,1.645.008,3.291.016,4.935,0,.568-.006.836.169.622.857h-6.44v5.871Z" transform="translate(-16.289 -32.899)"/>
    <path id="Path_2" data-name="Path 2" d="M216.248,254.269v-4.5a6.16,6.16,0,0,1,.618-.063c1.668-.005,3.336.018,5-.014.58-.011.762.2.746.755-.032,1.063-.009,2.127-.011,3.19,0,.326,0,.638-.472.636C220.2,254.264,218.268,254.269,216.248,254.269Z" transform="translate(-72.587 -87.556)"/>
    <path id="Path_3" data-name="Path 3" d="M216.156,306.168V301.6h1.363c1.448,0,2.9.02,4.345-.01.514-.011.679.174.669.666-.022,1.11.014,2.221-.028,3.33-.007.2-.271.552-.421.555C220.134,306.18,218.183,306.168,216.156,306.168Z" transform="translate(-72.508 -131.915)"/>
    <path id="Path_4" data-name="Path 4" d="M131.324,147.256h2.636c1.065,0,2.131.006,3.2,0,.362,0,.592.065.585.516-.022,1.281-.008,2.562-.008,3.913h-6.409Z" transform="translate(0 0)"/>
    <path id="Path_5" data-name="Path 5" d="M215.988,201.7c0-1.424-.014-2.748.019-4.071a.6.6,0,0,1,.425-.405c1.812-.028,3.625-.033,5.436,0a.728.728,0,0,1,.485.518c.045,1.158.04,2.319,0,3.478a.661.661,0,0,1-.457.455C219.966,201.711,218.035,201.7,215.988,201.7Z" transform="translate(-72.362 -42.69)"/>
  </g>
</svg>
