<svg id="close" xmlns="http://www.w3.org/2000/svg" width="22.461" height="22.461" viewBox="0 0 22.461 22.461">
  <circle id="Ellipse_25" data-name="Ellipse 25" cx="11.23" cy="11.23" r="11.23" transform="translate(0 0)" fill="#2d2d2d"/>
  <path id="Path_143" data-name="Path 143" d="M127.9,127.9a1.1,1.1,0,0,1-1.544,0l-3.58-3.58-3.58,3.58a1.092,1.092,0,0,1-1.544-1.544l3.58-3.58-3.58-3.58a1.092,1.092,0,0,1,1.544-1.544l3.58,3.58,3.58-3.58a1.092,1.092,0,0,1,1.544,1.544l-3.58,3.58,3.58,3.58A1.1,1.1,0,0,1,127.9,127.9Z" transform="translate(-111.544 -111.544)" fill="#fff"/>
</svg>
