<svg xmlns="http://www.w3.org/2000/svg" width="20" height="20" viewBox="0 0 20 20">
  <g id="Compare" transform="translate(-47.397 -58.33)">
    <path id="Path_99" data-name="Path 99" d="M58.879,73.224c0,.106,0,.178,0,.249q0,2.054,0,4.108a.649.649,0,0,1-.741.748H48.146a.658.658,0,0,1-.748-.747q0-6.7,0-13.4a.659.659,0,0,1,.752-.743h7.765v-.25q0-2.054,0-4.109a.65.65,0,0,1,.741-.748h9.992a.658.658,0,0,1,.749.747q0,6.7,0,13.4a.659.659,0,0,1-.752.743H58.879ZM57.6,77.05V64.724H48.682v5.509H52.86c-.071-.074-.119-.127-.17-.177-.423-.423-.85-.842-1.268-1.271a.633.633,0,0,1,0-.912.626.626,0,0,1,.9.016q1.268,1.257,2.525,2.525a.615.615,0,0,1,.014.924q-1.269,1.284-2.552,2.554a.59.59,0,0,1-.588.161.634.634,0,0,1-.282-1.085c.418-.428.845-.847,1.268-1.27.048-.048.093-.1.154-.164H48.681V77.05Zm-.4-13.613h.921c.536,0,.764.229.764.765q0,3.739,0,7.479v.257h7.233v-5.51H61.934c.07.074.118.127.168.177.423.423.85.843,1.268,1.271a.634.634,0,0,1,0,.912.627.627,0,0,1-.9-.014q-1.274-1.264-2.538-2.539a.611.611,0,0,1,0-.91Q61.2,64.04,62.485,62.77a.594.594,0,0,1,.587-.164.635.635,0,0,1,.287,1.084c-.418.428-.845.847-1.268,1.271-.048.049-.093.1-.153.168h4.176V59.614h-8.92C57.194,60.89,57.194,62.15,57.194,63.437Z" transform="translate(0)" fill="#4cb8ba"/>
  </g>
</svg>
