<svg xmlns="http://www.w3.org/2000/svg" width="28.533" height="19.617" viewBox="0 0 28.533 19.617">
  <g id="credit-card" transform="translate(0 -80)">
    <path id="Path_118" data-name="Path 118" d="M28.533,84.626v-1.5A3.121,3.121,0,0,0,25.412,80H3.121A3.121,3.121,0,0,0,0,83.121v1.5a.279.279,0,0,0,.279.279H28.255A.279.279,0,0,0,28.533,84.626Z" fill="#c9c9c9"/>
    <path id="Path_119" data-name="Path 119" d="M0,200.279v9.53a3.121,3.121,0,0,0,3.121,3.121H25.412a3.121,3.121,0,0,0,3.121-3.121v-9.53a.279.279,0,0,0-.279-.279H.279A.279.279,0,0,0,0,200.279Zm7.133,7.3a.892.892,0,0,1-.892.892H5.35a.892.892,0,0,1-.892-.892v-.892a.892.892,0,0,1,.892-.892h.892a.892.892,0,0,1,.892.892Z" transform="translate(0 -113.313)" fill="#c9c9c9"/>
  </g>
</svg>
