<svg xmlns="http://www.w3.org/2000/svg" width="20" height="19.991" viewBox="0 0 20 19.991">
  <g id="Deal" transform="translate(0 -0.106)">
    <path id="Path_51" data-name="Path 51" d="M19.232,11.162,11.47,3.4a2.165,2.165,0,0,0-1.536-.639c-.047,0-.095,0-.142,0l-5.613.371A1.225,1.225,0,0,0,3.039,4.272L2.906,6.265a3.868,3.868,0,0,1-.8-.617A3.523,3.523,0,0,1,1.055,3.542,2.187,2.187,0,0,1,1.637,1.73C2.591.777,4.347.988,5.559,2.2a.519.519,0,0,0,.733-.733C4.67-.147,2.254-.354.9,1A3.2,3.2,0,0,0,.019,3.65,4.549,4.549,0,0,0,1.365,6.386,4.818,4.818,0,0,0,2.828,7.391l-.164,2.5A2.17,2.17,0,0,0,3.3,11.572l7.766,7.766A2.578,2.578,0,0,0,12.9,20.1h0a2.6,2.6,0,0,0,1.838-.759l4.5-4.5a2.594,2.594,0,0,0-.009-3.676ZM18.5,14.1,14,18.6a1.553,1.553,0,0,1-1.1.457h0a1.553,1.553,0,0,1-1.1-.457L4.023,10.838a1.137,1.137,0,0,1-.332-.88L3.842,7.7c.086.013.173.026.259.035.129.013.259.022.384.022a3.132,3.132,0,0,0,2.261-.9.519.519,0,1,0-.733-.733A2.187,2.187,0,0,1,4.2,6.7c-.1-.009-.194-.026-.289-.043l.155-2.313a.19.19,0,0,1,.177-.177L9.856,3.8c.026,0,.052,0,.078,0a1.147,1.147,0,0,1,.807.332L18.5,11.891a1.562,1.562,0,0,1,0,2.209Z" transform="translate(0 0)" fill="#4cb8ba"/>
  </g>
</svg>
