<svg xmlns="http://www.w3.org/2000/svg" width="17" height="12" viewBox="0 0 17 12">
  <path id="email" d="M1.859,12A2.113,2.113,0,0,1,0,10.091V1.364a1.192,1.192,0,0,1,.007-.129A.555.555,0,0,1,.13.785.546.546,0,0,1,.206.711,2.056,2.056,0,0,1,1.859,0H15.671a1.146,1.146,0,0,1,1.289.939A.563.563,0,0,1,17,1.208q0,.076,0,.156v8.727c0,.9-.448,1.909-1.329,1.909Zm-.8-1.909a1.113,1.113,0,0,0,.8.818H15.671c.293,0,.266-.517.266-.818V2.277L8.849,8.1a.52.52,0,0,1-.7,0L1.064,2.277ZM8.5,6.966l7.178-5.874H1.859a2.891,2.891,0,0,0-.509.024Z" fill="#4cb8ba"/>
</svg>
