<svg xmlns="http://www.w3.org/2000/svg" width="21.981" height="22.488" viewBox="0 0 21.981 22.488">
  <path id="filter" d="M21.023,0H1.42A.921.921,0,0,0,.6.5a.934.934,0,0,0,.073.972L7.853,11.589l.007.01a2.052,2.052,0,0,1,.4,1.218v8.249a.917.917,0,0,0,.917.923.944.944,0,0,0,.362-.072l4.036-1.539a.874.874,0,0,0,.6-.862v-6.7a2.052,2.052,0,0,1,.4-1.218l.007-.01L21.772,1.471A.933.933,0,0,0,21.845.5a.921.921,0,0,0-.821-.5ZM13.683,10.938a3.177,3.177,0,0,0-.619,1.879v6.562l-3.683,1.4V12.817a3.176,3.176,0,0,0-.62-1.879L1.788,1.116H20.655Zm0,0" transform="translate(-0.231 0.25)" fill="#ffbe03" stroke="#b59945" stroke-width="0.5"/>
</svg>
