<svg xmlns="http://www.w3.org/2000/svg" width="23.242" height="17.245" viewBox="0 0 23.242 17.245">
  <path id="Forma_1_copy_12" data-name="Forma 1 copy 12" d="M1.58,17.245A1.583,1.583,0,0,1,0,15.664V1.581A1.582,1.582,0,0,1,1.58,0H21.662a1.583,1.583,0,0,1,1.581,1.581V15.664a1.583,1.583,0,0,1-1.581,1.581ZM1.125,1.956V15.289a.832.832,0,0,0,.831.831H21.287a.832.832,0,0,0,.831-.831V1.956a.832.832,0,0,0-.831-.831H1.956A.832.832,0,0,0,1.125,1.956ZM17.057,14.64a2.624,2.624,0,1,1,0-4.538,2.624,2.624,0,1,1,0,4.538Zm.642-4.014a2.608,2.608,0,0,1,0,3.49,1.874,1.874,0,1,0,0-3.49ZM13.87,12.371a1.877,1.877,0,0,0,1.875,1.875,1.858,1.858,0,0,0,.67-.129,2.608,2.608,0,0,1,0-3.49,1.85,1.85,0,0,0-.67-.129A1.876,1.876,0,0,0,13.87,12.371Zm2.624,0a1.866,1.866,0,0,0,.563,1.335,1.867,1.867,0,0,0,0-2.671A1.866,1.866,0,0,0,16.494,12.371ZM10.98,13.762a.376.376,0,0,1,.532-.533.376.376,0,0,1-.532.533ZM9,13.871a.375.375,0,1,1,0-.75h.749a.375.375,0,0,1,0,.75Zm-1.875,0a.375.375,0,0,1,0-.75H7.5a.375.375,0,0,1,0,.75Zm-2.249,0a.375.375,0,1,1,0-.75h.749a.375.375,0,0,1,0,.75ZM3,13.871a.375.375,0,0,1,0-.75h.375a.375.375,0,0,1,0,.75ZM7.872,12a.375.375,0,0,1,0-.75h3.374a.375.375,0,1,1,0,.75ZM3,12a.375.375,0,0,1,0-.75H6.373a.375.375,0,0,1,0,.75ZM6.277,8.622H3.469a.847.847,0,0,1-.845-.845V4.219a.846.846,0,0,1,.845-.845H8.526a.847.847,0,0,1,.846.845V7.777a.847.847,0,0,1-.846.845Zm.845-.845a.81.81,0,0,1-.01.1H8.526a.1.1,0,0,0,.1-.1V7.123h-1.5Zm-1.5-3.558V7.777a.1.1,0,0,0,.1.1h.559a.1.1,0,0,0,.1-.1V5.719a.846.846,0,0,1,.845-.845H8.526a.1.1,0,0,0,.1-.1V4.219a.1.1,0,0,0-.1-.1H5.719A.1.1,0,0,0,5.623,4.219ZM3.373,7.777a.1.1,0,0,0,.1.1H4.883a.809.809,0,0,1-.009-.1V7.123h-1.5ZM7.123,5.719v.654h1.5v-.76a.807.807,0,0,1-.1.01H7.218A.1.1,0,0,0,7.123,5.719Zm-3.749.654h1.5v-.75h-1.5Zm0-2.154v.654h1.5V4.219a.818.818,0,0,1,.009-.1H3.469A.1.1,0,0,0,3.373,4.219Z" fill="#b59945"/>
</svg>
