<svg xmlns="http://www.w3.org/2000/svg" width="25.566" height="15.593" viewBox="0 0 25.566 15.593">
  <path id="Forma_1_copy_11" data-name="Forma 1 copy 11" d="M2914.988,663.808l-1.672-2.624c.229-.2.455-.411.671-.63a.42.42,0,0,0,.084-.472l-2.815-6.129a.415.415,0,0,0-.672-.12,12.406,12.406,0,0,1-8.8,3.665h-11.875a.413.413,0,0,0-.35.193.42.42,0,0,0-.065.226h0v4.839a.419.419,0,0,0,.038.176l2.815,6.128h0a.416.416,0,0,0,.378.244h21.919a.418.418,0,0,0,.417-.419v-4.84A.421.421,0,0,0,2914.988,663.808Zm-24.661-3.986,1.983,4.315v.472l-1.983-4.316Zm3.174-1.486h6.414l.54,1.173c-1.039.172-2.3.55-2.3,1.374,0,1.2,2.635,1.458,3.625,1.514l.565,1.23h-5.85c-.3-.951-1.75-1.629-3.6-1.629-.213,0-.425.01-.633.029l-1.027-2.235A2.852,2.852,0,0,0,2893.5,658.336Zm7.882,3.194a4.541,4.541,0,0,1-2.379-.646,3.621,3.621,0,0,1,1.813-.583Zm1.2,4.52h-9.437v-.324h9.438Zm-9.589-2.424-.36-.786c.086,0,.172-.006.259-.006a3.824,3.824,0,0,1,2.649.792h-2.548Zm9.589,1.263h-9.437v-.425h9.438Zm-9.437,2h9.438v.335h-9.437Zm10.27-2.424s1.389,0,1.488,0v4.005h-1.488Zm2.321,2.424h8.495v.335h-8.495Zm0-.838v-.324h8.495v.324Zm0-1.161v-.425h8.495v.425Zm8.149-1.263h-4.656c.152-.057.3-.116.454-.179a13.186,13.186,0,0,0,2.985-1.731Zm-2.127-2.276a2.174,2.174,0,0,1,1.027-2.077l.409.891A12.42,12.42,0,0,1,2911.756,661.351Zm-1.011-6.514.346.753a4.421,4.421,0,0,1-1.981.53A13.144,13.144,0,0,0,2910.745,654.837Zm-3.878,2.482a13.285,13.285,0,0,0,1.252-.6,2.171,2.171,0,0,0,1.06.239,5.244,5.244,0,0,0,2.262-.606l.986,2.146c-1.268.914-1.851,2.3-1.383,3.321a12.4,12.4,0,0,1-5.477,1.77l-.639-1.391c1.613-.324,1.971-.883,1.971-1.315,0-1.1-2.246-1.406-3.261-1.49l-.516-1.125A13.151,13.151,0,0,0,2906.867,657.319Zm-2.822,2.956a3.9,3.9,0,0,1,2.006.609,3.063,3.063,0,0,1-1.483.53Zm-1.812-1.948,2.434,5.3h-1.4l-2.43-5.291h.953C2901.935,658.336,2902.083,658.332,2902.232,658.327Zm-9.719.008a3.219,3.219,0,0,1-1.643.669l-.307-.669Zm-2.186,3.955,1.983,4.315v.373l-1.983-4.316Zm2.816,5.77h9.438v.405h-9.437Zm12.591.405v-.405h8.495v.405Z" transform="translate(-2889.495 -653.71)" fill="#333" opacity="0.502"/>
</svg>
