<svg xmlns="http://www.w3.org/2000/svg" width="24.699" height="26.945" viewBox="0 0 24.699 26.945">
  <g id="Giftbox-Hands-Purchase-Buy-Commerce" transform="translate(-5 -2)">
    <path id="Path_120" data-name="Path 120" d="M30.4,4.9,28.6,2.2a.449.449,0,0,0-.373-.2H19.245a.449.449,0,0,0-.373.2L17.076,4.9A.434.434,0,0,0,17,5.144v8.982a1.351,1.351,0,0,0,1.347,1.347H29.125a1.351,1.351,0,0,0,1.347-1.347V5.144A.434.434,0,0,0,30.4,4.9Zm-10.908-2h8.5l1.2,1.8H18.289Zm5.146,2.694v3.2l-.651-.431a.432.432,0,0,0-.494,0l-.651.431v-3.2Zm-6.736,0H21.94v1.8H17.9Zm11.676,8.532a.449.449,0,0,1-.449.449H18.347a.449.449,0,0,1-.449-.449V8.287H21.94V9.634a.442.442,0,0,0,.238.4.432.432,0,0,0,.458-.022l1.1-.732,1.1.732a.449.449,0,0,0,.7-.373V8.287h4.042Zm0-6.736H25.532v-1.8h4.042Z" transform="translate(-6.611 0)" fill="#c9c9c9"/>
    <path id="Path_121" data-name="Path 121" d="M28.461,36.132a.449.449,0,0,0-.635,0l-2.694,2.694a.449.449,0,0,0,.317.767h.9v3.144h.9V39.144a.449.449,0,0,0-.449-.449h-.263l1.61-1.61,1.61,1.61h-.263a.449.449,0,0,0-.449.449v5.389h.9v-4.94h.9a.449.449,0,0,0,.317-.767Z" transform="translate(-11.019 -18.732)" fill="#c9c9c9"/>
    <path id="Path_122" data-name="Path 122" d="M51,4h.9V6.694H51Z" transform="translate(-25.342 -1.102)" fill="#c9c9c9"/>
    <path id="Path_123" data-name="Path 123" d="M51,12h.9v.9H51Z" transform="translate(-25.342 -5.509)" fill="#c9c9c9"/>
    <path id="Path_124" data-name="Path 124" d="M57,7h.9V8.8H57Z" transform="translate(-28.648 -2.755)" fill="#c9c9c9"/>
    <path id="Path_125" data-name="Path 125" d="M57,13h.9v.9H57Z" transform="translate(-28.648 -6.06)" fill="#c9c9c9"/>
    <path id="Path_126" data-name="Path 126" d="M11,4h.9V6.694H11Z" transform="translate(-3.306 -1.102)" fill="#c9c9c9"/>
    <path id="Path_127" data-name="Path 127" d="M11,12h.9v.9H11Z" transform="translate(-3.306 -5.509)" fill="#c9c9c9"/>
    <path id="Path_128" data-name="Path 128" d="M5,7h.9V8.8H5Z" transform="translate(0 -2.755)" fill="#c9c9c9"/>
    <path id="Path_129" data-name="Path 129" d="M5,13h.9v.9H5Z" transform="translate(0 -6.06)" fill="#c9c9c9"/>
    <path id="Path_130" data-name="Path 130" d="M44,56h.9v.9H44Z" transform="translate(-21.486 -29.75)" fill="#c9c9c9"/>
    <path id="Path_131" data-name="Path 131" d="M47.185,18a1.8,1.8,0,0,0-1.8,1.8v3.79a1.507,1.507,0,0,0-.2.031,1.8,1.8,0,0,0-1.091.84L40.957,29.9a.477.477,0,0,0-.058.225v3.144h-.449a.449.449,0,0,0-.449.449V37.31a.449.449,0,0,0,.449.449h7.185a.449.449,0,0,0,.449-.449V33.718a.449.449,0,0,0-.449-.449h-.449v-.292l1.7-2.124a.439.439,0,0,0,.1-.278V19.8a1.8,1.8,0,0,0-1.8-1.8Zm0,18.861H40.9V34.167h6.287Zm.9-6.444-1.7,2.124a.439.439,0,0,0-.1.278v.449H41.8V30.246l3.085-5.34a.9.9,0,1,1,1.554.9L44.19,29.694l.777.449,2.245-3.889a1.8,1.8,0,0,0-.656-2.456,2.062,2.062,0,0,0-.269-.121V19.8a.9.9,0,0,1,1.8,0Z" transform="translate(-19.282 -8.815)" fill="#c9c9c9"/>
    <path id="Path_132" data-name="Path 132" d="M13.532,33.269h-.449V30.125a.477.477,0,0,0-.058-.225L9.881,24.458a1.794,1.794,0,0,0-1.289-.871V19.8A1.8,1.8,0,1,0,5,19.8V30.574a.439.439,0,0,0,.1.278l1.7,2.124v.292H6.347a.449.449,0,0,0-.449.449V37.31a.449.449,0,0,0,.449.449h7.185a.449.449,0,0,0,.449-.449V33.718A.449.449,0,0,0,13.532,33.269ZM5.9,30.417V19.8a.9.9,0,1,1,1.8,0v3.88a2.37,2.37,0,0,0-.269.121,1.8,1.8,0,0,0-.656,2.456l2.245,3.889.777-.449L7.546,25.8a.9.9,0,1,1,1.554-.9l3.085,5.34v3.022H7.694V32.82a.439.439,0,0,0-.1-.278Zm7.185,6.444H6.8V34.167h6.287Z" transform="translate(0 -8.815)" fill="#c9c9c9"/>
    <path id="Path_133" data-name="Path 133" d="M19,56h.9v.9H19Z" transform="translate(-7.713 -29.75)" fill="#c9c9c9"/>
    <path id="Path_134" data-name="Path 134" d="M34,57h.9v.9H34Z" transform="translate(-15.977 -30.301)" fill="#c9c9c9"/>
    <path id="Path_135" data-name="Path 135" d="M28,53h.9v.9H28Z" transform="translate(-12.671 -28.097)" fill="#c9c9c9"/>
  </g>
</svg>
