<svg xmlns="http://www.w3.org/2000/svg" width="28.65" height="28.083" viewBox="0 0 28.65 28.083">
  <path id="Home" d="M101.815,89.049l-13.344-11.7a.981.981,0,0,0-1.293,0l-13.344,11.7a.981.981,0,0,0,1.294,1.476l1.033-.906v14.593a.981.981,0,0,0,.981.981H98.507a.981.981,0,0,0,.981-.981V89.619l1.033.906a.981.981,0,0,0,1.294-1.476ZM85.559,103.231V95.149H90.09v8.083H85.559ZM97.526,87.907v15.324H92.053V94.167a.981.981,0,0,0-.981-.981H84.578a.981.981,0,0,0-.981.981v9.064H78.123V87.907s0,0,0-.007l9.7-8.5,9.7,8.5S97.526,87.9,97.526,87.907Z" transform="translate(-73.499 -77.11)" fill="#fff"/>
</svg>
