<svg xmlns="http://www.w3.org/2000/svg" xmlns:xlink="http://www.w3.org/1999/xlink" width="45.398" height="45.406" viewBox="0 0 45.398 45.406">
  <defs>
    <linearGradient id="linear-gradient" x1="-1.539" y1="-3.018" x2="-1.1" y2="-3.49" gradientUnits="objectBoundingBox">
      <stop offset="0" stop-color="#fd5"/>
      <stop offset="0.5" stop-color="#ff543e"/>
      <stop offset="1" stop-color="#c837ab"/>
    </linearGradient>
  </defs>
  <g id="instagram-sketched" transform="translate(0.07 0.038)">
    <path id="Path_219" data-name="Path 219" d="M2.891,3.114C-.666,6.809.062,10.734.062,22.658c0,9.9-1.728,19.829,7.314,22.166,2.824.726,27.841.726,30.661,0,3.765-.971,6.828-4.025,7.247-9.35.058-.743.058-24.869,0-25.627C44.837,4.172,41.346.9,36.745.241,35.691.089,35.48.043,30.07.034,10.883.043,6.677-.811,2.891,3.114Z" transform="translate(0 0)" fill="url(#linear-gradient)"/>
    <path id="Path_220" data-name="Path 220" d="M19.854,3.147c-6.849,0-13.352-.609-15.836,5.766-1.026,2.633-.877,6.053-.877,10.949,0,4.3-.138,8.335.877,10.947,2.478,6.379,9.035,5.768,15.832,5.768,6.558,0,13.32.683,15.834-5.768,1.028-2.659.877-6.028.877-10.947,0-6.53.36-10.745-2.807-13.91-3.206-3.206-7.543-2.8-13.908-2.8Zm-1.5,3.012c14.286-.023,16.1-1.611,15.1,20.451-.356,7.8-6.3,6.947-13.6,6.947-13.316,0-13.7-.381-13.7-13.7,0-13.476,1.056-13.688,12.2-13.7ZM28.775,8.933a2,2,0,1,0,2,2A2.005,2.005,0,0,0,28.775,8.933Zm-8.921,2.344a8.583,8.583,0,1,0,8.58,8.584,8.583,8.583,0,0,0-8.58-8.584Zm0,3.012c7.365,0,7.375,11.143,0,11.143S12.479,14.29,19.854,14.29Z" transform="translate(2.838 2.808)" fill="#fff"/>
  </g>
</svg>
