<svg xmlns="http://www.w3.org/2000/svg" width="14.651" height="21.307" viewBox="0 0 14.651 21.307">
  <g id="location" transform="translate(-79.968 0.001)">
    <path id="Path_116" data-name="Path 116" d="M87.293,21.307a1.272,1.272,0,0,1-1.114-.645l-.007-.013-5.284-9.671a7.418,7.418,0,0,1,.1-7.33A7.231,7.231,0,0,1,87.129,0c.109,0,.219,0,.328,0A7.231,7.231,0,0,1,93.6,3.648a7.418,7.418,0,0,1,.1,7.33l-5.284,9.671-.007.013a1.272,1.272,0,0,1-1.114.645Zm0-19.976h-.137a5.909,5.909,0,0,0-5.019,2.983,6.1,6.1,0,0,0-.08,6.023l5.236,9.584,5.236-9.584a6.1,6.1,0,0,0-.08-6.023A5.909,5.909,0,0,0,87.43,1.333h-.137Z" transform="translate(0 0)" fill="#2d2d2d"/>
    <path id="Path_117" data-name="Path 117" d="M187,93.993a3,3,0,1,1,3-3A3,3,0,0,1,187,93.993Zm0-4.661A1.665,1.665,0,1,0,188.661,91,1.667,1.667,0,0,0,187,89.332Z" transform="translate(-99.703 -84.338)" fill="#2d2d2d"/>
  </g>
</svg>
