<svg xmlns="http://www.w3.org/2000/svg" width="18.931" height="18.932" viewBox="0 0 18.931 18.932">
  <path id="logout" d="M13.848,14.494v1.479a2.961,2.961,0,0,1-2.958,2.958H3.458A2.961,2.961,0,0,1,.5,15.973V2.958A2.961,2.961,0,0,1,3.458,0H10.89a2.961,2.961,0,0,1,2.958,2.958V4.437a.74.74,0,1,1-1.479,0V2.958A1.481,1.481,0,0,0,10.89,1.479H3.458A1.481,1.481,0,0,0,1.979,2.958V15.973a1.481,1.481,0,0,0,1.479,1.479H10.89a1.481,1.481,0,0,0,1.479-1.479V14.494a.74.74,0,0,1,1.479,0ZM18.89,8.2,17.234,6.539a.739.739,0,0,0-1.046,1.046l1.178,1.178H8.487a.74.74,0,0,0,0,1.479h8.879L16.188,11.42a.739.739,0,1,0,1.046,1.046L18.89,10.81a1.851,1.851,0,0,0,0-2.615Zm0,0" transform="translate(-0.5)" fill="#4cb8ba"/>
</svg>
