<svg xmlns="http://www.w3.org/2000/svg" xmlns:xlink="http://www.w3.org/1999/xlink" width="269.395" height="80.167" viewBox="0 0 269.395 80.167">
  <defs>
    <linearGradient id="linear-gradient" y1="0.5" x2="1" y2="0.5" gradientUnits="objectBoundingBox">
      <stop offset="0" stop-color="#ff9000"/>
      <stop offset="1" stop-color="#ffbe03"/>
    </linearGradient>
    <linearGradient id="linear-gradient-3" x1="1" y1="0.5" x2="0" y2="0.5" xlink:href="#linear-gradient"/>
  </defs>
  <g id="logo" transform="translate(-53.524 -67.933)">
    <path id="Path_8" data-name="Path 8" d="M1163.883,209.914a6.35,6.35,0,0,0-6.35-6.35h0a6.351,6.351,0,0,0-6.35,6.35v16.437c0,.163.013.322.025.482v13.924q0,7.033-3.141,10.346a10.772,10.772,0,0,1-8.188,3.313,15.82,15.82,0,0,1-10.124-3.522l0,.009-.249-.1v4.912a26,26,0,0,0,14.077,3.6q9.646,0,14.976-4.332t5.328-14.219v-14.4h0Z" transform="translate(-937.884 -122.881)" fill="#fff"/>
    <path id="Path_9" data-name="Path 9" d="M1128.773,222.565a6.35,6.35,0,0,0-6.35-6.35h0a6.35,6.35,0,0,0-6.35,6.35v6.4c0,.163.012.322.024.482v13.924q0,7.033-3.14,10.346a10.774,10.774,0,0,1-8.188,3.313,15.823,15.823,0,0,1-10.125-3.522l0,.009-.249-.1v4.912a26,26,0,0,0,14.077,3.6q9.645,0,14.975-4.332t5.329-14.219v-14.4h0Z" transform="translate(-930.63 -125.495)" fill="#fff"/>
    <path id="Path_10" data-name="Path 10" d="M1092.564,222.565a6.35,6.35,0,0,0-6.35-6.35h0a6.35,6.35,0,0,0-6.351,6.35v6.4c0,.163.013.322.025.482v13.924q0,7.033-3.14,10.346a10.775,10.775,0,0,1-8.189,3.313,15.823,15.823,0,0,1-10.124-3.522l0,.009-.249-.1v4.912a26,26,0,0,0,14.077,3.6q9.646,0,14.975-4.332t5.329-14.219v-14.4h0Z" transform="translate(-923.148 -125.495)" fill="#fff"/>
    <path id="Path_11" data-name="Path 11" d="M991.563,203.564h0a6.351,6.351,0,0,0-6.351,6.35v16.437c0,.163.013.322.025.482v13.924q0,7.033-3.14,10.346a6.37,6.37,0,0,1-10.836,0q-3.139-3.313-3.14-10.346V226.833c.012-.159.024-.319.024-.482V209.914a6.35,6.35,0,0,0-6.35-6.35h0a6.351,6.351,0,0,0-6.35,6.35v16.437h0v14.4q0,9.886,5.328,14.219t14.976,4.332c.317,0,.62-.017.931-.025.31.008.614.025.931.025q9.645,0,14.975-4.332t5.329-14.219v-14.4h0V209.914A6.351,6.351,0,0,0,991.563,203.564Z" transform="translate(-901.919 -122.881)" fill="#fff"/>
    <path id="Path_12" data-name="Path 12" d="M1020.865,249.166a6.043,6.043,0,0,0,6.21,5.863h0a6.044,6.044,0,0,0,6.211-5.863V233.991c0-.15-.012-.3-.024-.445V220.691q0-6.494,3.071-9.551a10.861,10.861,0,0,1,8.008-3.059,16.062,16.062,0,0,1,9.9,3.251l0-.008.244.1v-.905a5.788,5.788,0,0,0-3.925-5.441,29.862,29.862,0,0,0-9.841-1.511q-9.432,0-14.645,4t-5.211,13.128v28.475Z" transform="translate(-915.437 -122.881)" fill="url(#linear-gradient)"/>
    <path id="Path_13" data-name="Path 13" d="M1056.377,224a6.339,6.339,0,0,0-6.35-6.329h0a6.34,6.34,0,0,0-6.35,6.329V240.38c0,.162.013.321.025.48v13.878q0,7.008-3.141,10.31a10.789,10.789,0,0,1-8.188,3.3,15.854,15.854,0,0,1-10.124-3.51l0,.009-.249-.1v.977a6.23,6.23,0,0,0,4.015,5.873,29.051,29.051,0,0,0,10.062,1.631q9.647,0,14.976-4.318t5.328-14.17V240.381h0Z" transform="translate(-915.671 -125.796)" fill="#fff"/>
    <circle id="Ellipse_1" data-name="Ellipse 1" cx="4.872" cy="4.872" r="4.872" transform="translate(162.643 76.535)" fill="#fff"/>
    <circle id="Ellipse_2" data-name="Ellipse 2" cx="4.872" cy="4.872" r="4.872" transform="translate(200.246 76.535)" fill="#fff"/>
    <circle id="Ellipse_3" data-name="Ellipse 3" cx="4.872" cy="4.872" r="4.872" transform="translate(180.953 137.686)" fill="#fff"/>
    <circle id="Ellipse_4" data-name="Ellipse 4" cx="4.872" cy="4.872" r="4.872" transform="translate(69.887 76.535)" fill="#fff"/>
    <circle id="Ellipse_5" data-name="Ellipse 5" cx="4.872" cy="4.872" r="4.872" transform="translate(152.225 76.535)" fill="#fff"/>
    <rect id="Rectangle_7" data-name="Rectangle 7" width="19.904" height="17.772" rx="5.032" transform="translate(277.299 97.536)" fill="#fff"/>
    <g id="Group_5" data-name="Group 5" transform="translate(287.251 67.933)">
      <path id="Path_14" data-name="Path 14" d="M1260.8,187.5l-.179,0h0a6.941,6.941,0,1,0,0,13.882h0a11.253,11.253,0,0,1,11.21,11.211v29.982a11.2,11.2,0,0,1-21.787,3.669v19.068a24.871,24.871,0,0,0,10.576,2.356,25.157,25.157,0,0,0,25.093-25.093V212.587A25.156,25.156,0,0,0,1260.8,187.5Z" transform="translate(-1250.042 -187.494)" fill="url(#linear-gradient)"/>
    </g>
    <g id="Group_6" data-name="Group 6" transform="translate(251.678 67.933)">
      <path id="Path_15" data-name="Path 15" d="M1230.3,253.779a11.253,11.253,0,0,1-11.21-11.21V212.587a11.253,11.253,0,0,1,11.21-11.211h0a6.941,6.941,0,1,0,0-13.882h0l-.179,0a25.157,25.157,0,0,0-24.913,25.09v29.982a25.157,25.157,0,0,0,25.093,25.093,24.872,24.872,0,0,0,10.576-2.356V246.238A11.256,11.256,0,0,1,1230.3,253.779Z" transform="translate(-1205.204 -187.494)" fill="url(#linear-gradient-3)"/>
    </g>
  </g>
</svg>
