<svg xmlns="http://www.w3.org/2000/svg" width="12.46" height="19.937" viewBox="0 0 12.46 19.937">
  <path id="mobile" d="M6449.62,942h-9.034a1.755,1.755,0,0,0-1.712,1.791v16.354a1.754,1.754,0,0,0,1.712,1.791h9.034a1.756,1.756,0,0,0,1.714-1.791V943.791A1.756,1.756,0,0,0,6449.62,942Zm.467,18.146a.511.511,0,0,1-.467.545h-9.034a.512.512,0,0,1-.467-.545v-2.57h9.968Zm0-3.816h-9.968v-9.345h9.968Zm0-10.591h-9.968v-1.947a.512.512,0,0,1,.467-.545h9.034a.511.511,0,0,1,.467.545Zm-4.984,14.329a.934.934,0,1,0-.935-.934A.934.934,0,0,0,6445.1,960.067Zm1.246-16.2h-2.492a.623.623,0,0,0,0,1.246h2.492a.623.623,0,1,0,0-1.246Z" transform="translate(-6438.874 -941.999)" fill="#4cb8ba"/>
</svg>
