<svg xmlns="http://www.w3.org/2000/svg" width="18.089" height="18.6" viewBox="0 0 18.089 18.6">
  <g id="my-orders" transform="translate(-5.963)">
    <path id="Path_63" data-name="Path 63" d="M19.944,9.862V1.5H7.461V17.1H13.2a.749.749,0,0,1,0,1.5H6.712a.751.751,0,0,1-.749-.749V.749A.751.751,0,0,1,6.712,0H20.693a.751.751,0,0,1,.749.749V9.862a.749.749,0,1,1-1.5,0ZM23.8,11.684a.751.751,0,0,0-1.061.062l-4.107,4.569-2.06-1.985a.751.751,0,1,0-1.036,1.086l2.621,2.522a.736.736,0,0,0,.524.212h.025a.749.749,0,0,0,.524-.25l4.619-5.143A.753.753,0,0,0,23.8,11.684ZM17.2,4.369H10.457a.749.749,0,1,0,0,1.5H17.2a.749.749,0,0,0,0-1.5Zm.749,4.868a.751.751,0,0,0-.749-.749H10.457a.749.749,0,1,0,0,1.5H17.2A.751.751,0,0,0,17.947,9.238Zm-7.49,3.246a.749.749,0,1,0,0,1.5h2a.749.749,0,0,0,0-1.5Z" transform="translate(0)" fill="#ffbe03"/>
  </g>
</svg>
