<svg xmlns="http://www.w3.org/2000/svg" width="20" height="20.843" viewBox="0 0 20 20.843">
  <g id="offers" transform="translate(-10.359 0.002)">
    <g id="Group_92" data-name="Group 92" transform="translate(10.359 -0.002)">
      <g id="Group_91" data-name="Group 91" transform="translate(0 0)">
        <path id="Path_47" data-name="Path 47" d="M29.395,10.69a.611.611,0,0,1,0-.54l.777-1.59a1.809,1.809,0,0,0-.781-2.4l-1.564-.83a.611.611,0,0,1-.317-.437L27.2,3.147a1.81,1.81,0,0,0-2.044-1.485l-1.753.248a.611.611,0,0,1-.513-.167L21.622.512a1.809,1.809,0,0,0-2.526,0L17.824,1.743a.611.611,0,0,1-.513.167l-1.753-.248a1.809,1.809,0,0,0-2.044,1.485L13.208,4.89a.611.611,0,0,1-.317.437l-1.564.83a1.809,1.809,0,0,0-.781,2.4l.777,1.59a.611.611,0,0,1,0,.54l-.777,1.59a1.809,1.809,0,0,0,.781,2.4l1.564.83a.611.611,0,0,1,.317.437l.306,1.744A1.808,1.808,0,0,0,15.3,19.2a1.859,1.859,0,0,0,.26-.018l1.753-.248a.611.611,0,0,1,.513.167L19.1,20.328a1.809,1.809,0,0,0,2.526,0L22.894,19.1a.611.611,0,0,1,.513-.167l1.753.248A1.809,1.809,0,0,0,27.2,17.693l.306-1.743a.611.611,0,0,1,.317-.437l1.564-.83a1.809,1.809,0,0,0,.781-2.4Zm-.567,2.931-1.564.83a1.805,1.805,0,0,0-.938,1.291l-.306,1.744a.612.612,0,0,1-.692.5l-1.753-.248a1.8,1.8,0,0,0-1.518.493l-1.272,1.231a.612.612,0,0,1-.855,0l-1.272-1.231a1.8,1.8,0,0,0-1.259-.511,1.846,1.846,0,0,0-.259.018l-1.753.248a.612.612,0,0,1-.692-.5l-.306-1.744a1.805,1.805,0,0,0-.938-1.291l-1.564-.83a.612.612,0,0,1-.264-.813l.777-1.59a1.805,1.805,0,0,0,0-1.6l-.777-1.59a.612.612,0,0,1,.264-.813l1.564-.83A1.805,1.805,0,0,0,14.392,5.1L14.7,3.355a.612.612,0,0,1,.692-.5l1.753.248a1.805,1.805,0,0,0,1.518-.493l1.272-1.231a.612.612,0,0,1,.855,0l1.272,1.231a1.805,1.805,0,0,0,1.518.493l1.753-.248a.612.612,0,0,1,.692.5L26.326,5.1a1.805,1.805,0,0,0,.938,1.291l1.564.83a.612.612,0,0,1,.264.813l-.777,1.59a1.805,1.805,0,0,0,0,1.6l.777,1.59A.612.612,0,0,1,28.828,13.621Z" transform="translate(-10.359 0.002)" fill="#4cb8ba"/>
      </g>
    </g>
    <g id="Group_94" data-name="Group 94" transform="translate(15.151 5.212)">
      <g id="Group_93" data-name="Group 93" transform="translate(0)">
        <path id="Path_48" data-name="Path 48" d="M154.007,143.992a.685.685,0,0,0-.969,0l-9.046,9.046a.685.685,0,1,0,.969.969l9.046-9.046A.685.685,0,0,0,154.007,143.992Z" transform="translate(-143.792 -143.792)" fill="#4cb8ba"/>
      </g>
    </g>
    <g id="Group_96" data-name="Group 96" transform="translate(15.537 4.822)">
      <g id="Group_95" data-name="Group 95" transform="translate(0)">
        <path id="Path_49" data-name="Path 49" d="M145.315,123.116a2.513,2.513,0,1,0,2.513,2.513A2.516,2.516,0,0,0,145.315,123.116Zm0,3.655a1.142,1.142,0,1,1,1.142-1.142A1.143,1.143,0,0,1,145.315,126.771Z" transform="translate(-142.802 -123.116)" fill="#4cb8ba"/>
      </g>
    </g>
    <g id="Group_98" data-name="Group 98" transform="translate(20.155 10.992)">
      <g id="Group_97" data-name="Group 97" transform="translate(0)">
        <path id="Path_50" data-name="Path 50" d="M263.435,280.61a2.513,2.513,0,1,0,2.513,2.513A2.516,2.516,0,0,0,263.435,280.61Zm0,3.655a1.142,1.142,0,1,1,1.142-1.142A1.144,1.144,0,0,1,263.435,284.265Z" transform="translate(-260.922 -280.61)" fill="#4cb8ba"/>
      </g>
    </g>
  </g>
</svg>
