<svg xmlns="http://www.w3.org/2000/svg" width="18.289" height="19.061" viewBox="0 0 18.289 19.061">
  <g id="offers" transform="translate(-10.359 0.002)">
    <g id="Group_92" data-name="Group 92" transform="translate(10.359 -0.002)">
      <g id="Group_91" data-name="Group 91" transform="translate(0 0)">
        <path id="Path_47" data-name="Path 47" d="M27.766,9.775a.559.559,0,0,1,0-.494l.711-1.454a1.655,1.655,0,0,0-.714-2.2l-1.43-.759a.559.559,0,0,1-.29-.4l-.28-1.594a1.655,1.655,0,0,0-1.869-1.358l-1.6.227a.559.559,0,0,1-.47-.153L20.659.468a1.655,1.655,0,0,0-2.31,0L17.185,1.594a.559.559,0,0,1-.47.153l-1.6-.227a1.654,1.654,0,0,0-1.869,1.358l-.28,1.594a.559.559,0,0,1-.29.4l-1.43.759a1.655,1.655,0,0,0-.714,2.2l.711,1.454a.559.559,0,0,1,0,.494L10.53,11.23a1.655,1.655,0,0,0,.714,2.2l1.43.759a.559.559,0,0,1,.29.4l.28,1.594a1.654,1.654,0,0,0,1.631,1.375,1.7,1.7,0,0,0,.238-.017l1.6-.227a.558.558,0,0,1,.47.153l1.163,1.125a1.655,1.655,0,0,0,2.31,0l1.163-1.125a.559.559,0,0,1,.47-.153l1.6.227a1.654,1.654,0,0,0,1.869-1.358l.28-1.594a.559.559,0,0,1,.29-.4l1.43-.759a1.655,1.655,0,0,0,.714-2.2Zm-.518,2.68-1.43.759a1.651,1.651,0,0,0-.858,1.181l-.28,1.594a.56.56,0,0,1-.632.459l-1.6-.227a1.65,1.65,0,0,0-1.388.451L19.894,17.8a.56.56,0,0,1-.782,0l-1.163-1.125a1.649,1.649,0,0,0-1.151-.468,1.688,1.688,0,0,0-.237.017l-1.6.227a.56.56,0,0,1-.632-.459l-.28-1.594a1.651,1.651,0,0,0-.858-1.181l-1.43-.759a.56.56,0,0,1-.242-.743l.711-1.454a1.651,1.651,0,0,0,0-1.459l-.711-1.454a.56.56,0,0,1,.242-.743l1.43-.759a1.651,1.651,0,0,0,.858-1.181l.28-1.594a.56.56,0,0,1,.632-.459l1.6.227a1.651,1.651,0,0,0,1.388-.451l1.163-1.125a.56.56,0,0,1,.782,0l1.163,1.125a1.651,1.651,0,0,0,1.388.451l1.6-.227a.56.56,0,0,1,.632.459l.28,1.594a1.651,1.651,0,0,0,.858,1.181l1.43.759a.56.56,0,0,1,.242.743L26.779,8.8a1.651,1.651,0,0,0,0,1.459l.711,1.454A.56.56,0,0,1,27.248,12.456Z" transform="translate(-10.359 0.002)" fill="#ffbe03"/>
      </g>
    </g>
    <g id="Group_94" data-name="Group 94" transform="translate(14.741 4.766)">
      <g id="Group_93" data-name="Group 93" transform="translate(0)">
        <path id="Path_48" data-name="Path 48" d="M153.133,143.975a.627.627,0,0,0-.886,0l-8.272,8.272a.627.627,0,1,0,.886.886l8.272-8.272A.627.627,0,0,0,153.133,143.975Z" transform="translate(-143.792 -143.792)" fill="#ffbe03"/>
      </g>
    </g>
    <g id="Group_96" data-name="Group 96" transform="translate(15.094 4.409)">
      <g id="Group_95" data-name="Group 95" transform="translate(0)">
        <path id="Path_49" data-name="Path 49" d="M145.1,123.116a2.3,2.3,0,1,0,2.3,2.3A2.3,2.3,0,0,0,145.1,123.116Zm0,3.342a1.044,1.044,0,1,1,1.044-1.045A1.046,1.046,0,0,1,145.1,126.458Z" transform="translate(-142.802 -123.116)" fill="#ffbe03"/>
      </g>
    </g>
    <g id="Group_98" data-name="Group 98" transform="translate(19.317 10.052)">
      <g id="Group_97" data-name="Group 97" transform="translate(0)">
        <path id="Path_50" data-name="Path 50" d="M263.22,280.61a2.3,2.3,0,1,0,2.3,2.3A2.3,2.3,0,0,0,263.22,280.61Zm0,3.342a1.044,1.044,0,1,1,1.044-1.044A1.046,1.046,0,0,1,263.22,283.952Z" transform="translate(-260.922 -280.61)" fill="#ffbe03"/>
      </g>
    </g>
  </g>
</svg>
