<svg xmlns="http://www.w3.org/2000/svg" width="20.892" height="20.887" viewBox="0 0 20.892 20.887">
  <g id="screen" transform="translate(-45.606 -100.759)">
    <path id="Path_1" data-name="Path 1" d="M63.781,158.57c0,1.169,0,2.306,0,3.443a2.1,2.1,0,0,1-2.14,2.125H50.683a2.093,2.093,0,0,1-2.211-2.205c0-1.109,0-2.217,0-3.348-.067,0-.129-.013-.19-.013-.406,0-.812,0-1.217,0A1.383,1.383,0,0,1,45.69,157.2q-.011-.717,0-1.435a1.381,1.381,0,0,1,1.378-1.366c.456-.006.913,0,1.4,0v-.236q0-1.576,0-3.153a2.087,2.087,0,0,1,2.172-2.178q5.479,0,10.958,0A2.085,2.085,0,0,1,63.781,151c0,1.044,0,2.087,0,3.131v.264c.446,0,.878-.011,1.309,0a1.8,1.8,0,0,1,.614.108,1.313,1.313,0,0,1,.855,1.228c.022.492.013.986,0,1.478a1.378,1.378,0,0,1-1.367,1.355C64.733,158.576,64.27,158.57,63.781,158.57Zm-1.392-4.185c0-1.149,0-2.272,0-3.394a.706.706,0,0,0-.769-.77H50.641a.7.7,0,0,0-.777.782q0,1.587,0,3.174c0,.069.006.139.009.208Zm-12.525,4.194v.217q0,1.576,0,3.152a.714.714,0,0,0,.807.8H61.583a.71.71,0,0,0,.805-.8q0-1.576,0-3.152c0-.07-.006-.14-.01-.215Zm-2.775-1.416H65.162V155.8H47.089Z" transform="translate(-0.073 -45.281)" fill="#fff"/>
    <path id="Path_2" data-name="Path 2" d="M47.007,102.156c0,.68,0,1.337,0,1.994a1.078,1.078,0,0,1-.035.3.69.69,0,0,1-1.349-.144c-.013-.76-.028-1.521,0-2.28a1.357,1.357,0,0,1,1.322-1.258c.717-.014,1.434-.008,2.15,0a.695.695,0,1,1-.017,1.389C48.4,102.159,47.721,102.156,47.007,102.156Z" transform="translate(0)" fill="#fff"/>
    <path id="Path_3" data-name="Path 3" d="M336.488,391.551c0-.7,0-1.384,0-2.064a.689.689,0,0,1,.94-.671.655.655,0,0,1,.448.633c.008.724.015,1.449,0,2.172a1.37,1.37,0,0,1-1.333,1.319c-.717.014-1.434.009-2.151,0a.694.694,0,0,1,0-1.388C335.083,391.546,335.77,391.551,336.488,391.551Z" transform="translate(-271.39 -271.303)" fill="#fff"/>
    <path id="Path_4" data-name="Path 4" d="M47.091,391.581c.717,0,1.4,0,2.09,0a.682.682,0,0,1,.661.5.654.654,0,0,1-.273.759.84.84,0,0,1-.4.125q-1.053.018-2.106,0a1.375,1.375,0,0,1-1.358-1.361c-.01-.695,0-1.39,0-2.085a.7.7,0,1,1,1.39-.01c.005.608,0,1.216,0,1.824C47.091,391.409,47.091,391.481,47.091,391.581Z" transform="translate(-0.083 -271.333)" fill="#fff"/>
    <path id="Path_5" data-name="Path 5" d="M336.448,102.159c-.71,0-1.39.005-2.069,0a.693.693,0,0,1-.664-.947.657.657,0,0,1,.637-.441c.717-.006,1.434-.012,2.15,0a1.371,1.371,0,0,1,1.336,1.36c.01.7.006,1.4,0,2.107a.695.695,0,1,1-1.389-.012c0-.6,0-1.2,0-1.8C336.448,102.344,336.448,102.266,336.448,102.159Z" transform="translate(-271.35 -0.003)" fill="#fff"/>
  </g>
</svg>
