<svg xmlns="http://www.w3.org/2000/svg" width="13.498" height="14.725" viewBox="0 0 13.498 14.725">
  <g id="share" transform="translate(0 0)">
    <path id="Path_91" data-name="Path 91" d="M318.656,17.994A1.994,1.994,0,1,1,316.662,16a1.994,1.994,0,0,1,1.994,1.994Zm0,0" transform="translate(-305.618 -15.54)" fill="#4cb8ba"/>
    <path id="Path_92" data-name="Path 92" d="M301.122,4.908a2.454,2.454,0,1,1,2.454-2.454A2.457,2.457,0,0,1,301.122,4.908Zm0-3.988a1.534,1.534,0,1,0,1.534,1.534A1.536,1.536,0,0,0,301.122.92Zm0,0" transform="translate(-290.079)" fill="#4cb8ba"/>
    <path id="Path_93" data-name="Path 93" d="M318.656,359.326a1.994,1.994,0,1,1-1.994-1.994A1.994,1.994,0,0,1,318.656,359.326Zm0,0" transform="translate(-305.618 -347.055)" fill="#4cb8ba"/>
    <path id="Path_94" data-name="Path 94" d="M301.122,346.24a2.454,2.454,0,1,1,2.454-2.454A2.457,2.457,0,0,1,301.122,346.24Zm0-3.988a1.534,1.534,0,1,0,1.534,1.534A1.536,1.536,0,0,0,301.122,342.252Zm0,0" transform="translate(-290.079 -331.516)" fill="#4cb8ba"/>
    <path id="Path_95" data-name="Path 95" d="M19.988,188.662a1.994,1.994,0,1,1-1.994-1.994A1.994,1.994,0,0,1,19.988,188.662Zm0,0" transform="translate(-15.54 -181.299)" fill="#4cb8ba"/>
    <path id="Path_96" data-name="Path 96" d="M2.454,175.576a2.454,2.454,0,1,1,2.454-2.454,2.457,2.457,0,0,1-2.454,2.454Zm0-3.988a1.534,1.534,0,1,0,1.534,1.534,1.535,1.535,0,0,0-1.534-1.534Zm0,0" transform="translate(0 -165.76)" fill="#4cb8ba"/>
    <path id="Path_97" data-name="Path 97" d="M114.963,94.688a.614.614,0,0,1-.3-1.147l5.693-3.246a.614.614,0,1,1,.607,1.066l-5.693,3.246a.61.61,0,0,1-.3.08Zm0,0" transform="translate(-111.06 -87.62)" fill="#4cb8ba"/>
    <path id="Path_98" data-name="Path 98" d="M120.677,270.692a.609.609,0,0,1-.3-.08l-5.693-3.246a.614.614,0,0,1,.607-1.066l5.693,3.246a.614.614,0,0,1-.3,1.147Zm0,0" transform="translate(-111.082 -258.562)" fill="#4cb8ba"/>
  </g>
</svg>
