<svg xmlns="http://www.w3.org/2000/svg" xmlns:xlink="http://www.w3.org/1999/xlink" width="77.574" height="48.717" viewBox="0 0 77.574 48.717">
  <defs>
    <linearGradient id="linear-gradient" x1="0.5" x2="0.5" y2="1" gradientUnits="objectBoundingBox">
      <stop offset="0" stop-color="#ff9000"/>
      <stop offset="1" stop-color="#ffbe03"/>
    </linearGradient>
  </defs>
  <g id="shipping" transform="translate(10 -89.062)">
    <g id="Group_296" data-name="Group 296" transform="translate(-10 89.062)">
      <g id="Group_295" data-name="Group 295" transform="translate(0 0)">
        <path id="Path_136" data-name="Path 136" d="M69.657,114.148l-1.94-7.758a1.173,1.173,0,0,0,.928-1.147v-1.251a4.931,4.931,0,0,0-4.926-4.926H54.886v-2.58a2.426,2.426,0,0,0-2.424-2.424H7.427A2.426,2.426,0,0,0,5,96.486v21.266a1.173,1.173,0,0,0,2.346,0V96.486a.078.078,0,0,1,.078-.078H52.462a.078.078,0,0,1,.078.078v21.267a1.173,1.173,0,0,0,2.346,0v-1.329H68.726a3.838,3.838,0,0,1,3.644,2.658H68.724a1.173,1.173,0,0,0-1.173,1.173v2.5a3.679,3.679,0,0,0,3.675,3.675h1.329v5.16H69.488a7.425,7.425,0,0,0-14.039,0h-.565v-8.835a1.173,1.173,0,0,0-2.346,0v8.835H28.207a7.425,7.425,0,0,0-14.039,0H7.427a.078.078,0,0,1-.078-.078v-2.58h5.082a1.173,1.173,0,1,0,0-2.346H1.173a1.173,1.173,0,1,0,0,2.346H5v2.58a2.426,2.426,0,0,0,2.424,2.424h6.335c0,.026,0,.052,0,.078a7.427,7.427,0,1,0,14.855,0c0-.026,0-.052,0-.078h26.43c0,.026,0,.052,0,.078a7.427,7.427,0,1,0,14.855,0c0-.026,0-.052,0-.078h3.833a1.173,1.173,0,0,0,1.173-1.173V120.254A6.186,6.186,0,0,0,69.657,114.148ZM54.886,101.411H63.72a2.583,2.583,0,0,1,2.58,2.58v.078H54.886Zm0,12.666v-7.662H65.307l1.916,7.662ZM21.188,139.1a5.082,5.082,0,1,1,5.082-5.082A5.088,5.088,0,0,1,21.188,139.1Zm41.281,0a5.082,5.082,0,1,1,5.082-5.082A5.088,5.088,0,0,1,62.469,139.1Zm10.086-15.011H71.226a1.331,1.331,0,0,1-1.329-1.329v-1.329h2.658v2.658Z" transform="translate(0 -94.062)" fill="url(#linear-gradient)"/>
      </g>
    </g>
    <g id="Group_298" data-name="Group 298" transform="translate(21.445 132.931)">
      <g id="Group_297" data-name="Group 297" transform="translate(0 0)">
        <path id="Path_137" data-name="Path 137" d="M130.691,350.6a2.424,2.424,0,1,0,2.424,2.424A2.426,2.426,0,0,0,130.691,350.6Z" transform="translate(-128.267 -350.597)" fill="url(#linear-gradient)"/>
      </g>
    </g>
    <g id="Group_300" data-name="Group 300" transform="translate(62.727 132.931)">
      <g id="Group_299" data-name="Group 299" transform="translate(0 0)">
        <path id="Path_138" data-name="Path 138" d="M412.879,350.6a2.424,2.424,0,1,0,2.424,2.424A2.426,2.426,0,0,0,412.879,350.6Z" transform="translate(-410.455 -350.597)" fill="url(#linear-gradient)"/>
      </g>
    </g>
    <g id="Group_302" data-name="Group 302" transform="translate(32.704 127.927)">
      <g id="Group_301" data-name="Group 301" transform="translate(0 0)">
        <path id="Path_139" data-name="Path 139" d="M223.913,316.393H206.4a1.173,1.173,0,0,0,0,2.346h17.513a1.173,1.173,0,0,0,0-2.346Z" transform="translate(-205.227 -316.393)" fill="url(#linear-gradient)"/>
      </g>
    </g>
    <g id="Group_304" data-name="Group 304" transform="translate(5.183 122.924)">
      <g id="Group_303" data-name="Group 303" transform="translate(0 0)">
        <path id="Path_140" data-name="Path 140" d="M33.286,282.188H18.275a1.173,1.173,0,0,0,0,2.346H33.286a1.173,1.173,0,0,0,0-2.346Z" transform="translate(-17.102 -282.188)" fill="url(#linear-gradient)"/>
      </g>
    </g>
    <g id="Group_306" data-name="Group 306" transform="translate(23.947 106.661)">
      <g id="Group_305" data-name="Group 305" transform="translate(0 0)">
        <path id="Path_141" data-name="Path 141" d="M164.885,171.366a1.173,1.173,0,0,0-1.658,0L152.8,181.8l-5.425-5.425a1.173,1.173,0,0,0-1.658,1.658l6.255,6.255a1.173,1.173,0,0,0,1.658,0l11.258-11.259A1.173,1.173,0,0,0,164.885,171.366Z" transform="translate(-145.37 -171.023)" fill="url(#linear-gradient)"/>
      </g>
    </g>
  </g>
</svg>
