<svg xmlns="http://www.w3.org/2000/svg" width="44.533" height="44.533" viewBox="0 0 44.533 44.533">
  <g id="twitter" transform="translate(-0.001)">
    <circle id="Ellipse_29" data-name="Ellipse 29" cx="22.267" cy="22.267" r="22.267" transform="translate(0.001 0)" fill="#55acee"/>
    <g id="Group_343" data-name="Group 343" transform="translate(9.965 13.507)">
      <path id="Path_218" data-name="Path 218" d="M51.045,36.524a10.619,10.619,0,0,1-3.057.837,5.337,5.337,0,0,0,2.341-2.944,10.655,10.655,0,0,1-3.38,1.291,5.327,5.327,0,0,0-9.07,4.855A15.108,15.108,0,0,1,26.909,35a5.328,5.328,0,0,0,1.647,7.106,5.285,5.285,0,0,1-2.411-.666c0,.023,0,.045,0,.067a5.325,5.325,0,0,0,4.27,5.218,5.343,5.343,0,0,1-2.4.092,5.328,5.328,0,0,0,4.972,3.7,10.744,10.744,0,0,1-7.88,2.2A15.136,15.136,0,0,0,48.4,39.967c0-.231-.005-.46-.015-.688a10.793,10.793,0,0,0,2.656-2.755Z" transform="translate(-25.103 -34.028)" fill="#f1f2f2"/>
    </g>
  </g>
</svg>
