<svg xmlns="http://www.w3.org/2000/svg" width="18.763" height="18.772" viewBox="0 0 18.763 18.772">
  <path id="user" d="M6443.383,737.166c1.992,0,4.1,1.679,4.1,2.932v2.933a6.041,6.041,0,0,1-1.727,4.28A1.174,1.174,0,0,0,6446,749.3l5.106,2.422a.655.655,0,0,1,.489.722v1.146h-16.417V752.4a.707.707,0,0,1,.491-.677l5.152-2.433a1.175,1.175,0,0,0,.244-1.982,6.23,6.23,0,0,1-1.787-4.277V740.1c0-1.226,2.133-2.932,4.109-2.932m0-1.174c-2.591,0-5.283,2.163-5.283,4.106v2.933a7.346,7.346,0,0,0,2.225,5.192l-5.152,2.433s-1.172.523-1.172,1.173v1.762a1.173,1.173,0,0,0,1.172,1.173h16.417a1.173,1.173,0,0,0,1.173-1.173V751.83c0-.689-1.173-1.173-1.173-1.173l-5.1-2.422c1.625-1.28,2.175-3.794,2.175-5.2V740.1c0-1.943-2.688-4.106-5.278-4.106Z" transform="translate(-6434.001 -735.992)" fill="#4cb8ba"/>
</svg>
