<svg xmlns="http://www.w3.org/2000/svg" width="17.32" height="18.831" viewBox="0 0 17.32 18.831">
  <g id="wishlist" transform="translate(-5.963)">
    <path id="Path_63" data-name="Path 63" d="M18.742,9.013V1.369H7.332V15.631H12.58a.685.685,0,0,1,0,1.369H6.648a.687.687,0,0,1-.685-.685V.685A.687.687,0,0,1,6.648,0H19.426a.687.687,0,0,1,.685.685V9.013a.685.685,0,1,1-1.369,0Zm-2.51-5.02H10.07a.685.685,0,1,0,0,1.369h6.161a.685.685,0,1,0,0-1.369Zm.685,4.45a.687.687,0,0,0-.685-.685H10.07a.685.685,0,1,0,0,1.369h6.161A.687.687,0,0,0,16.916,8.443ZM10.07,11.409a.685.685,0,1,0,0,1.369H11.9a.685.685,0,0,0,0-1.369Z" fill="#4cb8ba"/>
    <g id="interface" transform="translate(15.143 -10.817)">
      <g id="Group_225" data-name="Group 225" transform="translate(0 22.164)">
        <path id="Path_85" data-name="Path 85" d="M5.6,22.164a2.4,2.4,0,0,0-1.783.813,2.4,2.4,0,0,0-1.783-.813A2.216,2.216,0,0,0,0,24.575c0,.953.481,2.81,3.7,4.537a.255.255,0,0,0,.241,0c3.219-1.727,3.7-3.584,3.7-4.537A2.218,2.218,0,0,0,5.6,22.164Z" transform="translate(0 -22.164)" fill="none" stroke="#4cb8ba" stroke-width="1"/>
      </g>
    </g>
  </g>
</svg>
