<svg xmlns="http://www.w3.org/2000/svg" width="25.218" height="25.193" viewBox="0 0 25.218 25.193">
  <g id="women" transform="translate(-24.008 -15.517)">
    <path id="Path_1" data-name="Path 1" d="M36.724,29.294a3.9,3.9,0,0,1-.558-.182q-5.674-2.829-11.344-5.666a1.153,1.153,0,0,1,.007-2.117q5.66-2.827,11.316-5.661a1.25,1.25,0,0,1,1.183,0Q42.6,18.3,47.873,20.948c.272.136.545.269.815.408a1.147,1.147,0,0,1,0,2.067q-5.705,2.856-11.414,5.7A3.451,3.451,0,0,1,36.724,29.294Zm-8.861-6.91a.721.721,0,0,0,.069.05q4.327,2.166,8.658,4.325a.441.441,0,0,0,.338-.027q2.643-1.309,5.278-2.632l3.412-1.7c-.114-.061-.2-.108-.284-.151q-4.16-2.082-8.318-4.167a.565.565,0,0,0-.572,0q-4.144,2.084-8.295,4.154C28.062,22.276,27.976,22.324,27.863,22.383Z" transform="translate(-0.115 0)" fill="#272727"/>
    <path id="Path_2" data-name="Path 2" d="M25.263,228.062a6.073,6.073,0,0,1,.644.237q5.267,2.625,10.526,5.265a.532.532,0,0,0,.543,0q5.259-2.641,10.524-5.27a1.3,1.3,0,0,1,.981-.142,1.14,1.14,0,0,1,.171,2.129c-1.149.58-2.3,1.154-3.452,1.729q-3.921,1.961-7.84,3.925a1.343,1.343,0,0,1-1.3.008q-5.607-2.816-11.221-5.617a1.144,1.144,0,0,1-.716-1.3A1.21,1.21,0,0,1,25.263,228.062Z" transform="translate(-0.084 -201.128)" fill="#272727"/>
    <path id="Path_3" data-name="Path 3" d="M49.226,336.621a1.185,1.185,0,0,1-.716,1.048q-2.533,1.258-5.06,2.529-3.105,1.552-6.21,3.107a1.3,1.3,0,0,1-1.252,0q-5.619-2.818-11.245-5.624a1.151,1.151,0,1,1,1.018-2.055q2.9,1.449,5.8,2.9c1.6.8,3.2,1.595,4.794,2.4a.513.513,0,0,0,.522,0q5.284-2.652,10.573-5.293a1.222,1.222,0,0,1,1.007-.1A1.166,1.166,0,0,1,49.226,336.621Z" transform="translate(0 -302.754)" fill="#272727"/>
  </g>
</svg>
